<?xml version="1.0" standalone="no"?>
<!DOCTYPE svg PUBLIC "-//W3C//DTD SVG 20010904//EN"
 "http://www.w3.org/TR/2001/REC-SVG-20010904/DTD/svg10.dtd">
<svg version="1.0" xmlns="http://www.w3.org/2000/svg"
 width="451.000000pt" height="378.000000pt" viewBox="0 0 451.000000 378.000000"
 preserveAspectRatio="xMidYMid meet">

<g transform="translate(0.000000,378.000000) scale(0.100000,-0.100000)"
fill="#000000" stroke="none">
<path d="M1825 3394 c-22 -3 -99 -13 -172 -24 -157 -24 -227 -25 -348 -6 -220
35 -315 29 -355 -21 -24 -31 -26 -75 -4 -108 20 -31 33 -35 135 -45 47 -4 104
-14 127 -21 52 -15 99 -60 112 -107 5 -21 10 -153 10 -300 l0 -263 31 23 c119
89 121 90 177 85 50 -5 56 -3 121 41 l69 47 4 200 c4 225 9 245 75 287 35 21
48 23 183 22 106 0 162 -5 209 -18 243 -67 427 -245 486 -471 20 -77 20 -243
0 -320 -50 -196 -198 -345 -386 -390 -37 -8 -112 -15 -178 -15 l-114 0 7 -77
c3 -42 6 -87 6 -101 l0 -25 138 6 c295 12 517 84 732 236 147 104 226 211 261
351 20 80 17 288 -5 368 -74 270 -293 487 -593 586 -136 45 -232 57 -463 61
-124 1 -243 1 -265 -1z"/>
<path d="M1923 2650 c-39 -10 -88 -28 -110 -38 -76 -40 -182 -122 -244 -191
-35 -39 -67 -71 -71 -71 -12 0 -9 39 6 98 l14 52 -31 -22 c-59 -42 -197 -181
-246 -247 -143 -194 -246 -445 -287 -700 -8 -47 -14 -89 -14 -93 0 -3 -9 -4
-21 -1 -27 7 -75 56 -99 102 l-20 36 6 -55 c22 -213 74 -400 147 -530 54 -96
149 -190 230 -229 61 -29 137 -49 137 -37 0 4 -9 34 -20 67 -42 122 -53 199
-54 359 -1 222 39 389 140 592 45 90 144 251 151 244 2 -1 -10 -32 -26 -68
-38 -83 -113 -325 -139 -448 -50 -234 -49 -338 9 -645 52 -280 50 -391 -13
-572 -27 -77 -30 -94 -19 -107 16 -19 54 -21 69 -3 6 7 23 53 37 102 33 110
43 258 26 374 l-12 81 109 105 c99 95 244 264 295 345 l19 31 -37 -23 c-38
-22 -134 -32 -150 -16 -4 4 9 29 29 56 53 72 102 184 132 297 24 91 27 124 34
375 6 245 9 283 29 345 43 132 131 274 235 375 25 24 46 47 46 51 0 8 -137 29
-183 28 -18 0 -64 -9 -104 -19z"/>
<path d="M2125 1492 c-3 -3 -5 -15 -5 -28 0 -22 22 -34 68 -34 12 0 31 -9 42
-20 19 -19 20 -33 20 -319 l0 -298 -82 -5 c-46 -3 -92 -9 -103 -13 -17 -7 -17
-5 5 20 l25 28 -54 -7 c-112 -14 -218 -72 -327 -178 -74 -71 -83 -73 -84 -15
-1 32 -34 -30 -60 -113 -29 -90 -29 -177 1 -237 13 -26 29 -48 34 -50 6 -2 18
23 27 55 34 115 142 243 264 312 30 18 57 30 59 28 2 -2 -21 -24 -51 -48 -105
-83 -174 -168 -219 -265 -65 -139 -65 -129 2 -122 32 2 96 17 143 33 81 27 83
28 52 36 -43 11 -40 31 7 53 22 9 62 40 90 67 49 50 61 66 135 180 22 33 57
70 84 88 l47 31 3 -92 c3 -83 1 -94 -19 -115 -15 -16 -34 -24 -55 -24 -38 0
-63 -24 -48 -48 9 -14 35 -16 175 -17 154 0 164 1 167 19 5 24 -23 46 -59 46
-14 0 -38 9 -53 21 -25 20 -26 24 -26 130 0 90 3 109 15 109 8 0 15 4 15 9 0
5 -7 14 -15 21 -13 10 -15 53 -15 272 0 164 4 258 10 256 5 -1 76 -91 158
-198 101 -133 155 -196 170 -198 18 -3 22 2 22 25 0 15 3 51 6 78 l6 50 -155
205 c-86 113 -169 220 -185 239 l-29 35 -101 1 c-56 1 -104 0 -107 -3z"/>
<path d="M2842 1491 c-21 -13 -10 -45 18 -52 72 -20 84 -26 94 -44 6 -11 11
-21 11 -22 1 -6 73 24 95 40 13 9 37 17 51 17 42 0 59 10 59 35 0 32 -26 38
-98 25 -40 -7 -75 -7 -111 0 -65 12 -102 13 -119 1z"/>
<path d="M3194 1486 c-11 -28 4 -46 36 -46 17 0 40 -5 51 -10 18 -10 19 -24
19 -292 l0 -280 41 36 c22 20 50 41 62 47 12 6 30 23 39 39 24 42 103 58 210
42 179 -26 291 -128 290 -267 0 -171 -134 -274 -362 -275 -79 -1 -87 -3 -120
-30 l-34 -30 159 0 c238 0 337 27 426 114 59 58 81 112 81 201 -1 54 -6 85
-23 121 -44 94 -150 176 -264 205 l-48 12 39 20 c21 10 52 31 68 46 103 94 58
258 -93 333 -44 22 -58 23 -309 26 -230 3 -263 1 -268 -12z m494 -75 c50 -25
92 -75 93 -109 4 -94 -18 -136 -92 -177 -44 -23 -64 -28 -134 -29 -123 -2
-125 2 -125 169 0 143 5 157 60 168 50 11 158 -2 198 -22z"/>
<path d="M3011 1349 c-46 -18 -84 -53 -122 -112 -35 -54 -39 -57 -39 -32 0 23
-2 26 -15 15 -29 -24 -83 -149 -95 -219 -6 -38 -10 -104 -8 -145 3 -81 -1 -87
-40 -60 -22 15 -22 15 3 -42 54 -121 130 -194 214 -202 66 -6 97 -35 106 -101
4 -28 4 -64 0 -81 -6 -26 -4 -30 16 -30 21 0 22 2 16 75 -5 69 -4 75 14 75 10
0 19 -4 19 -10 0 -12 77 -14 84 -2 7 12 -51 65 -99 91 -36 20 -37 21 -10 16
35 -7 101 -50 109 -71 8 -21 26 -8 26 18 0 30 -50 113 -60 99 -5 -9 -13 -9
-33 0 -15 7 -27 15 -27 19 0 4 11 33 25 64 14 31 21 56 15 56 -5 0 -12 -4 -15
-10 -3 -5 -14 -10 -25 -10 -17 0 -17 3 -3 48 18 58 12 176 -13 242 -10 26 -17
77 -18 120 -1 62 4 85 27 134 15 32 27 60 27 62 0 8 -55 3 -79 -7z m-113 -456
c0 -100 4 -142 20 -190 11 -34 17 -65 14 -68 -31 -30 -67 75 -67 195 0 71 19
190 30 190 2 0 3 -57 3 -127z"/>
<path d="M3573 950 c-17 -4 -48 -17 -68 -29 l-36 -21 6 21 c7 20 7 20 -36 -2
-59 -30 -138 -113 -173 -182 -15 -31 -32 -57 -36 -57 -4 0 -12 10 -18 23 -9
18 -11 6 -11 -61 -1 -88 14 -139 51 -179 35 -37 45 -29 47 37 0 33 10 83 21
112 19 50 107 175 116 165 3 -2 -11 -29 -31 -58 -51 -78 -76 -151 -86 -259 -6
-69 -16 -108 -34 -143 -29 -57 -29 -57 -11 -57 14 0 49 73 61 128 4 21 16 37
33 46 15 8 47 29 72 47 42 31 43 32 21 41 l-23 8 33 32 c36 37 62 88 83 170
24 91 45 123 126 186 l24 20 -39 11 c-44 12 -47 12 -92 1z"/>
<path d="M2694 521 c4 -7 0 -11 -11 -11 -22 0 -63 -27 -63 -41 0 -5 15 -9 33
-9 19 0 50 -12 77 -30 25 -16 50 -30 57 -30 6 0 19 -7 28 -16 19 -20 80 -11
89 12 17 45 -19 121 -58 123 -12 0 -52 3 -90 7 -50 5 -67 3 -62 -5z m129 -55
c18 -7 43 -26 57 -41 l25 -28 -35 26 c-20 14 -51 33 -70 41 -19 8 -29 15 -22
16 7 0 27 -6 45 -14z"/>
</g>
</svg>
